<svg xmlns="http://www.w3.org/2000/svg" viewBox="0 0 72.113 104.889">
  <defs>
    <style>
      .cls-1 {
        fill: #fff;
      }
    </style>
  </defs>
  <path id="lightbulb" class="cls-1" d="M36.056,16.389A19.688,19.688,0,0,0,16.389,36.056a3.278,3.278,0,0,0,6.556,0A13.126,13.126,0,0,1,36.056,22.945a3.278,3.278,0,0,0,0-6.556ZM19.679,94.068a3.257,3.257,0,0,0,.549,1.811l5.021,7.547a3.28,3.28,0,0,0,2.729,1.463H44.132a3.274,3.274,0,0,0,2.729-1.463l5.021-7.547a3.3,3.3,0,0,0,.549-1.811l.01-8.846H19.671ZM36.056,0A36.037,36.037,0,0,0,8.924,59.776c3.409,3.89,8.756,12.046,10.739,18.88v.012H29.5v-.025a9.693,9.693,0,0,0-.44-2.882A64.6,64.6,0,0,0,16.32,53.294a26.222,26.222,0,1,1,39.476,0A64.743,64.743,0,0,0,43.073,75.718a9.733,9.733,0,0,0-.455,2.93v.02h9.834v-.01c1.983-6.836,7.33-14.992,10.739-18.88A36.04,36.04,0,0,0,36.056,0Z"/>
</svg>
