<svg xmlns="http://www.w3.org/2000/svg" viewBox="0 0 73.652 47.055">
  <defs>
    <style>
      .cls-1 {
        fill: #fff;
      }
    </style>
  </defs>
  <path id="eye" class="cls-1" d="M72.8,92.412a41.91,41.91,0,0,0-71.952,0,6.138,6.138,0,0,0,0,6.232,41.91,41.91,0,0,0,71.952,0A6.137,6.137,0,0,0,72.8,92.412ZM36.825,112.918A35.536,35.536,0,0,1,6.137,95.528a35.491,35.491,0,0,1,27.64-17.263,7.16,7.16,0,1,1-12.3,4.988v-.005a17.392,17.392,0,1,0,29.167-2.362A35.365,35.365,0,0,1,67.514,95.528,35.536,35.536,0,0,1,36.825,112.918Z" transform="translate(0 -72)"/>
</svg>
